<?xml version="1.0" encoding="utf-8"?>
<!-- Generator: Adobe Illustrator 16.0.0, SVG Export Plug-In . SVG Version: 6.00 Build 0)  -->
<!DOCTYPE svg PUBLIC "-//W3C//DTD SVG 1.1//EN" "http://www.w3.org/Graphics/SVG/1.1/DTD/svg11.dtd">
<svg version="1.1" id="Capa_1" xmlns="http://www.w3.org/2000/svg" xmlns:xlink="http://www.w3.org/1999/xlink" x="0px" y="0px"
width="600px" height="600px" viewBox="0 0 600 600" style="width: 600px; height: 600px; fill: #FFFFFF"
xml:space="preserve">
<g>
<g>
<path d="M501.393,134.562L231.608,77.195c-11.414-2.426-22.728,4.973-25.142,16.441l-5.126,33.096l311.286,66.188l5.126-33.096
C520.167,148.359,512.806,136.988,501.393,134.562z"/>
<path d="M387.941,199.938c-3.151-11.402-15.01-18.142-26.354-14.98l-51.216,14.285l-120.736-25.674l-13.278,63.039l-82.965,23.137
c-11.344,3.161-18.051,15.077-14.905,26.476l46.756,169.288c3.151,11.397,15.01,18.142,26.354,14.976l268.194-74.781
c11.344-3.167,18.052-15.078,14.905-26.48l-8.025-29.063l30.079,6.391c11.414,2.43,22.728-4.969,25.142-16.438l19.03-90.356
l-108.345-23.037L387.941,199.938z M418.914,285.977l6.633-31.497c0.996-4.716,5.649-7.758,10.343-6.762l31.348,6.669
c4.698,1,7.726,5.672,6.734,10.393l-6.633,31.498c-0.996,4.715-5.649,7.762-10.343,6.762l-31.349-6.665
C420.945,295.37,417.917,290.693,418.914,285.977z M98.059,276.639l74.22-20.688l175.12-48.829l18.845-5.261
c0.344-0.093,0.688-0.137,1.023-0.137c1.511,0,3.318,0.997,3.846,2.905l2.213,8.006l6.933,25.098l-275.81,76.903l-9.145-33.1
C94.731,279.458,95.992,277.213,98.059,276.639z M417.878,373.907c0.353,1.284-0.017,2.346-0.393,3.011
c-0.369,0.664-1.083,1.532-2.362,1.886l-268.189,74.783c-0.339,0.093-0.688,0.141-1.023,0.141c-1.511,0-3.319-1.001-3.847-2.909
l-27.271-98.743l275.81-76.907l16.822,60.9L417.878,373.907z"/>
<path d="M190.269,380.663c-1.287-4.648-6.118-7.395-10.746-6.105l-31.321,8.736c-4.623,1.289-7.359,6.146-6.072,10.796
l8.691,31.467c1.287,4.648,6.117,7.395,10.744,6.101l31.321-8.731c4.627-1.289,7.359-6.146,6.078-10.796L190.269,380.663z"/>
</g>
</g>
</svg>