<?xml version="1.0" encoding="utf-8"?>
<!-- Generator: Adobe Illustrator 23.1.0, SVG Export Plug-In . SVG Version: 6.00 Build 0)  -->
<svg version="1.1" id="Capa_1" xmlns="http://www.w3.org/2000/svg" xmlns:xlink="http://www.w3.org/1999/xlink" x="0px" y="0px"
	 viewBox="0 0 600 600" style="enable-background:new 0 0 600 600;" xml:space="preserve">
<style type="text/css">
	.st0{fill:#FFFFFF;}
</style>
<g id="Groupe_8044" transform="translate(11771 9673)">
	<g id="checkbook" transform="translate(-11752 -9676.101)">
		<path id="Tracé_8514" class="st0" d="M390.1,400.8c-4.3,0-7.8,3.5-7.8,7.8s3.5,7.8,7.8,7.8c4.3,0,7.8-3.5,7.8-7.8c0,0,0,0,0,0
			C397.9,404.3,394.4,400.8,390.1,400.8z"/>
		<path id="Tracé_8515" class="st0" d="M457.1,229.4h-46.3l37.9-38l0,0l22.4-22.4c12.1-12.3,11.9-32-0.3-44.1
			c-12.1-12-31.6-12-43.7,0l-16.9,16.9l-5.8-5.8c-9.1-9.1-23.9-9.1-33,0c0,0-0.1,0.1-0.1,0.1L323,185c-3.1,3-3.1,8,0,11
			c3,3.1,8,3.1,11,0c0,0,0.1-0.1,0.1-0.1l48.2-48.8c3-3.1,7.9-3.1,11-0.1c0,0,0,0,0.1,0.1l5.8,5.8l-76.5,76.5H104.9
			c-12.9,0-23.4,10.5-23.4,23.4v187c0,12.9,10.5,23.4,23.4,23.4h352.2c12.9,0,23.4-10.5,23.4-23.4v-187
			C480.5,239.9,470,229.4,457.1,229.4z M438.1,136c6.1-6.1,15.9-6.1,22,0c6.1,6.1,6.1,15.9,0,22l-16.9,16.9l-22-22L438.1,136z
			 M432.2,185.9L293,325.2l-22-22l139.3-139.2L432.2,185.9z M255.8,318.3l4.1-4.1l22,22l-4.1,4.1l-31.8,9.8L255.8,318.3z
			 M464.9,439.8c0,4.3-3.5,7.8-7.8,7.8H104.9c-4.3,0-7.8-3.5-7.8-7.8v-187c0-4.3,3.5-7.8,7.8-7.8H307l-63.7,63.7
			c-0.9,0.9-1.6,2-1.9,3.2l-14.1,45.8l-14.2,14.2c0,0,0,0.1-0.1,0.1c-3,3.1-2.9,8,0.2,11c1.5,1.4,3.4,2.2,5.4,2.2h207.3
			c4.3,0.1,7.9-3.4,7.9-7.7c0.1-4.3-3.4-7.9-7.7-7.9c-0.1,0-0.2,0-0.3,0H237.5l0.9-0.9l45.8-14.1c1.2-0.4,2.3-1,3.2-1.9L395.2,245
			h61.9c4.3,0,7.8,3.5,7.8,7.8L464.9,439.8z"/>
		<path id="Tracé_8517" class="st0" d="M358.9,400.8h-93.5c-4.3-0.1-7.9,3.4-7.9,7.7c-0.1,4.3,3.4,7.9,7.7,7.9c0.1,0,0.2,0,0.3,0
			h93.5c4.3,0.1,7.9-3.4,7.9-7.7c0.1-4.3-3.4-7.9-7.7-7.9C359.1,400.8,359,400.8,358.9,400.8L358.9,400.8z"/>
		<g id="euro_1_" transform="translate(13.039 96.014)">
			<g id="Groupe_8043">
				<path id="Tracé_8518" class="st0" d="M148.3,232.9c-9.8,0-18.8-5.5-23.3-14.2h23.3v-8.1h-26c-0.2-1.3-0.3-2.7-0.3-4
					c0-1.4,0.1-2.7,0.3-4h26v-8.1h-23.3c6.7-12.9,22.6-17.9,35.5-11.2c1.8,0.9,3.5,2.1,5,3.4l7.2-7.1c-14.9-13.4-37.9-12.2-51.4,2.8
					c-3.2,3.6-5.7,7.7-7.2,12.2H99.7v8.1h12.4c-0.3,2.7-0.3,5.4,0,8.1H99.7v8.1h14.3c6.7,18.9,27.4,28.9,46.4,22.2
					c4.5-1.6,8.7-4.1,12.2-7.2l-7.2-7.2C160.6,230.7,154.5,232.9,148.3,232.9z"/>
			</g>
		</g>
	</g>
</g>
</svg>
