<?xml version="1.0" encoding="utf-8"?>
<!-- Generator: Adobe Illustrator 16.0.0, SVG Export Plug-In . SVG Version: 6.00 Build 0)  -->
<!DOCTYPE svg PUBLIC "-//W3C//DTD SVG 1.1//EN" "http://www.w3.org/Graphics/SVG/1.1/DTD/svg11.dtd">
<svg version="1.1" id="Capa_1" xmlns="http://www.w3.org/2000/svg" xmlns:xlink="http://www.w3.org/1999/xlink" x="0px" y="0px"
width		= "600px" height="600px" viewBox="0 0 600 600" style="width: 600px; height: 600px; fill: #FFFFFF"
xml:space	= "preserve">
<path d="M103.376,233.915h14.042v50.613h-14.042V233.915z"/>
<path d="M328.431,206.09c0.644,3.466,3.635,5.885,6.996,5.885c0.436,0,0.878-0.041,1.324-0.126l47.842-9.132l-2.94-14.129
l-47.538,9.077C330.25,198.401,327.705,202.175,328.431,206.09z"/>
<path d="M372.292,178.524l12.751-7.025l-21.78-22.748l-13.308,6.341L372.292,178.524z"/>
<path d="M230.134,394.598c0,34.743-27.811,62.912-62.116,62.912c-34.305,0-62.116-28.17-62.116-62.912
c0-34.744,27.811-62.908,62.116-62.908C202.323,331.689,230.134,359.854,230.134,394.598z"/>
<path fill="#FFFFFF" d="M168.018,430.315c-19.447,0-35.267-16.021-35.267-35.718c0-19.691,15.82-35.717,35.267-35.717
c19.447,0,35.267,16.021,35.267,35.717C203.284,414.294,187.465,430.315,168.018,430.315z"/>
<path d="M545,394.598c0,34.743-27.81,62.912-62.114,62.912c-34.309,0-62.117-28.17-62.117-62.912
c0-34.744,27.81-62.908,62.117-62.908C517.19,331.688,545,359.854,545,394.598z"/>
<path fill="#FFFFFF" d="M482.885,430.315c-19.447,0-35.267-16.021-35.267-35.718c0-19.691,15.819-35.717,35.267-35.717
c19.442,0,35.267,16.021,35.267,35.717C518.152,414.294,502.332,430.315,482.885,430.315z"/>
<path d="M488.342,404.264c-7.006,3.707-15.659,0.959-19.319-6.136l-39.344-76.25l25.383-13.433l39.339,76.248
C498.06,391.794,495.351,400.554,488.342,404.264z"/>
<path d="M528.405,324.114c-12.001-23.457-38.037-37.443-66.272-34.113l-59.428-105.686l-24.58,8.915
c0,0,38.356,92.982,21.341,156.349c-2.038,10.733-11.311,18.49-22.103,18.49h-38.279c-0.646,0-1.291-0.013-1.931-0.035
c-36.459-1.247-60.648-38.957-48.081-73.643l17.751-48.986c0.021-0.06-0.022-0.122-0.084-0.122H186.931
c-66.96,0.001-121.239,54.973-121.239,122.787v19.881c0,5.043,4.038,9.135,9.023,9.135h320.093c15.929,0,30.204-4.515,35.895-19.583
c2.264-5.985,5.837-11.401,10.562-15.666c26.709-24.126,63.8-27.711,81.309-27.94C527.495,333.833,530.669,328.541,528.405,324.114z
"/>
<path d="M249.685,245.407l-17.75,48.987c-12.569,34.685,11.622,72.397,48.08,73.642c0.644,0.021,1.284,0.035,1.931,0.035h38.279
c2.55,0,5.011-0.445,7.314-1.249c-30.937-6.863-49.893-40.895-38.466-72.428l17.751-48.987c0.021-0.06-0.023-0.122-0.089-0.122
h-57.134C249.664,245.285,249.708,245.347,249.685,245.407z"/>
<path d="M191.535,306.396h-45.319c-44.471,0-80.524,36.515-80.524,81.555c0,5.043,4.038,9.135,9.023,9.135h188.323v-18.272
C263.037,338.822,231.025,306.396,191.535,306.396z"/>
<path d="M191.535,306.396h-45.319c-1.503,0-2.995,0.052-4.48,0.134c37.547,2.188,67.333,33.706,67.333,72.285v18.271h53.967v-18.271
C263.037,338.822,231.025,306.396,191.535,306.396z"/>
<path d="M438.407,199.72h-62.696c-2.594,0-4.695-2.126-4.695-4.752v-15.625c0-4.111,2.762-7.696,6.696-8.696l59.38-15.111
c3.41-0.867,6.717,1.744,6.717,5.308v33.405C443.809,197.271,441.392,199.72,438.407,199.72z"/>
<path d="M437.093,155.536l-19.795,5.037v39.147h21.11c2.984,0,5.401-2.448,5.401-5.47v-33.406
C443.809,157.28,440.503,154.669,437.093,155.536z"/>
<path d="M415.201,393.572c6.927-2.941,12.451-7.985,15.505-16.067c2.322-6.154,6.07-11.669,10.952-16.025
c26.677-23.803,63.482-27.354,80.91-27.585c4.927-0.063,8.101-5.358,5.833-9.784c-12.002-23.459-38.033-37.439-66.269-34.109
C462.133,290.001,410.338,334.345,415.201,393.572z"/>
<path d="M320.669,134.673l30.798-0.315c1.579-0.015,3.082,0.692,4.084,1.926l14.818,18.207c0.401,0.5,0.058,1.252-0.578,1.256
l-43.176,0.326c-5.453,0-9.873-4.478-9.873-10v-7.418C316.742,136.455,318.502,134.673,320.669,134.673z"/>
<path d="M278.688,208.286h-46.064c-2.619,0-4.743,2.148-4.743,4.803v33.203h86.777c0.456,0,0.8-0.426,0.704-0.878
C314.219,239.718,306.618,208.286,278.688,208.286z"/>
<path d="M278.688,208.286h-17.292v38.007h53.262c0.456,0,0.8-0.426,0.704-0.878C314.219,239.718,306.618,208.286,278.688,208.286z"
/>
<path d="M157.812,159.147v-19.818c0-3.926-3.141-7.111-7.021-7.111c-3.875,0-7.021,3.186-7.021,7.111v19.818H157.812z"/>
<path d="M215.513,224.674H86.068v-5.57c0-36.199,28.981-65.549,64.723-65.549c35.746,0,64.723,29.351,64.723,65.549V224.674z"/>
<path d="M150.791,153.555c-9.636,0-18.774,2.151-26.992,5.978c22.264,10.362,37.732,33.132,37.732,59.572v5.57h53.982v-5.57
C215.513,182.902,186.537,153.555,150.791,153.555z"/>
<path d="M220.717,223.004H80.868c-3.957,0-7.163,3.248-7.163,7.255v7.767c0,4.007,3.207,7.255,7.163,7.255h139.849
c3.956,0,7.163-3.248,7.163-7.255v-7.767C227.881,226.252,224.673,223.004,220.717,223.004z"/>
<path d="M220.717,223.004h-46.818v22.281h46.818c3.956,0,7.163-3.252,7.163-7.259v-7.767
C227.881,226.252,224.673,223.004,220.717,223.004z"/>
</svg>