<?xml version="1.0" encoding="utf-8"?>
<!-- Generator: Adobe Illustrator 16.0.0, SVG Export Plug-In . SVG Version: 6.00 Build 0)  -->
<!DOCTYPE svg PUBLIC "-//W3C//DTD SVG 1.1//EN" "http://www.w3.org/Graphics/SVG/1.1/DTD/svg11.dtd">
<svg version="1.1" id="Capa_1" xmlns="http://www.w3.org/2000/svg" xmlns:xlink="http://www.w3.org/1999/xlink" x="0px" y="0px"
width		= "600px" height="600px" viewBox="0 0 600 600" style="width: 600px; height: 600px; fill: #FFFFFF"
xml:space	= "preserve">
<path d="M445.128,168.059c-5.783-18.294-24.171-31.762-46.009-32.043V136H182.496c-26.799,0-48.602,19.872-48.602,44.297
c0,15.764,9.309,30.464,24.289,38.362c1.893,0.997,3.857,1.873,5.873,2.624c-3.243,13.695-7.898,26.566-12.767,40.007
c-8.895,24.557-18.091,49.949-18.091,81.006v79.734c0,20.936,18.687,37.968,41.658,37.968H409.1l51.089-39.748
c9.282-7.226,14.611-17.752,14.611-28.879v-92.106C474.802,238.849,451.095,181.525,445.128,168.059z M354.526,161.313
c-3.012,5.757-4.701,12.193-4.701,18.984c0,6.663,1.663,13.137,4.714,18.984h-49.844v-18.984c0-10.469,9.342-18.984,20.828-18.984
H354.526z M281.623,161.313c-3.011,5.757-4.701,12.193-4.701,18.984v69.609h-27.773v-69.609c0-10.469,9.344-18.984,20.829-18.984
H281.623z M182.496,161.313h43.582c-3.011,5.757-4.7,12.193-4.7,18.984v18.984h-38.882c-3.664,0-7.263-0.875-10.402-2.534
c-6.432-3.39-10.427-9.692-10.427-16.451C161.665,169.829,171.01,161.313,182.496,161.313z M160.974,422.031v-79.734
c0-26.986,8.107-49.371,16.689-73.071c5.135-14.173,10.407-28.74,14.012-44.632h29.703v50.625h83.318v-50.625h93.732v-25.313
c-3.663,0-7.264-0.875-10.404-2.534c-6.428-3.39-10.425-9.692-10.425-16.451c0-10.469,9.344-18.984,20.828-18.984
c9.512,0,17.55,5.844,20.033,13.798l-0.158,0.061c0.021,0.042,0.181,0.383,0.447,0.979c0.329,1.337,0.508,2.725,0.508,4.147v12.656
c0,19.5-6.049,41.294-12.455,64.369c-7.527,27.141-15.316,55.199-15.316,84.976v92.391H174.859
C167.2,434.688,160.974,429.009,160.974,422.031z M447.029,391.374c0,3.709-1.776,7.219-4.87,9.627l-22.901,17.819v-76.523
c0-26.621,7.357-53.131,14.473-78.768c2.159-7.781,4.278-15.424,6.169-22.954c4.097,18.038,7.131,38.285,7.131,58.691
L447.029,391.374L447.029,391.374z"/>
</svg>