<?xml version="1.0" encoding="utf-8"?>
<!-- Generator: Adobe Illustrator 16.0.0, SVG Export Plug-In . SVG Version: 6.00 Build 0)  -->
<!DOCTYPE svg PUBLIC "-//W3C//DTD SVG 1.1//EN" "http://www.w3.org/Graphics/SVG/1.1/DTD/svg11.dtd">
<svg version="1.1" id="Capa_1" xmlns="http://www.w3.org/2000/svg" xmlns:xlink="http://www.w3.org/1999/xlink" x="0px" y="0px"
width="600px" height="600px" viewBox="0 0 600 600" style="width: 600px; height: 600px; fill: #FFFFFF"
xml:space="preserve">
<g>
<g>
<path d="M526.467,318.02c-1.63-12.52-13.756-22.534-36.473-29.853c-18.371-5.875-41.631-9.437-66.972-10.015V175.402
c0-2.119-0.633-4.141-1.9-5.778c-2.985-11.17-15.113-20.222-36.11-26.963c-20.363-6.548-46.969-10.111-74.935-10.111
c-27.875,0-54.21,3.563-74.121,10.111c-16.381,5.393-36.021,15.407-36.021,32.645c0,1.059,0.091,2.118,0.272,3.178l0.995,43.912
C142.467,210.358,85.722,251.477,74.5,314.07c-1.267,7.029-1.901,14.252-1.901,21.475c0,63.556,48.6,115.268,108.331,115.268
c24.888,0,48.962-9.148,68.329-25.808c17.015,4.237,36.925,6.548,58.013,6.741c4.615,26.675,58.916,38.904,109.597,38.904
c27.874,0,54.119-3.66,74.212-10.304c16.471-5.394,36.019-15.505,36.019-32.741V321.774
C527.099,320.522,526.919,319.174,526.467,318.02z M241.385,161.054c18.281-5.97,42.717-9.34,68.781-9.34
c25.884,0,51.224,3.371,69.687,9.34c19.639,6.356,23.894,12.904,23.894,14.252c0,1.348-4.255,7.993-23.983,14.252
c-18.373,5.874-43.713,9.341-69.597,9.341c-24.979,0-48.69-3.082-66.699-8.667c-19.458-5.971-24.888-12.615-25.34-14.734
c0-0.192,0-0.289-0.091-0.289C218.127,173.862,222.29,167.313,241.385,161.054z M404.922,199.38v24.652
c-0.813,1.349-1.266,2.985-1.175,4.623c0,1.252-4.255,7.896-23.983,14.252c-18.373,5.874-43.803,9.341-69.687,9.341
c-22.354,0-44.255-2.503-61.632-7.222c-0.272-0.096-0.453-0.096-0.725-0.193c-8.598-7.222-18.101-12.904-28.327-17.044
l-0.633-27.156c6.245,3.37,12.761,6.066,19.549,7.992c19.639,6.067,45.07,9.341,71.768,9.341c27.966,0,54.571-3.563,74.845-10.111
C391.891,205.832,398.587,202.943,404.922,199.38z M241.657,406.516c-36.834,35.727-93.941,32.838-127.427-6.355
c-33.486-39.192-30.861-99.956,5.974-135.586c16.652-16.082,38.282-25.038,60.727-25.038c9.05,0,18.1,1.445,26.789,4.237
c31.313,10.497,54.934,38.134,61.721,72.319c1.177,6.355,1.81,12.903,1.81,19.355
C271.251,362.604,260.482,388.412,241.657,406.516z M264.644,408.635c7.332-9.534,13.214-20.223,17.377-31.683
c7.692,0.675,15.838,1.156,24.163,1.253v1.733l0.453,32.644C292.61,412.391,278.582,411.042,264.644,408.635z M288.719,324.086
c5.339,0.385,10.86,0.577,16.471,0.674c0,0.192,0.091,0.481,0.091,0.674l0.542,33.416c-6.425-0.097-12.67-0.386-18.733-0.867
c1.357-7.415,2.082-15.021,2.082-22.534C289.261,331.692,289.08,327.938,288.719,324.086z M310.982,305.597
c-0.272,0-0.543,0-0.815,0c-8.688,0-17.104-0.386-24.888-0.963c-3.439-12.904-8.869-25.038-16.2-35.823
c13.576,1.83,27.241,2.793,40.998,2.793c27.966,0,54.571-3.563,74.935-10.111c6.97-2.312,13.575-5.104,19.91-8.667v25.519
C366.006,279.5,325.825,288.167,310.982,305.597z M323.11,320.427c0.904-2.697,7.51-8.957,26.063-14.542
c17.647-5.296,40.635-8.185,64.799-8.185h1.177c25.884,0,51.224,3.177,69.687,9.148c19.096,6.164,23.621,12.326,23.893,13.964
v0.097c-0.09,1.444-4.615,8.088-24.707,14.444c-18.554,5.874-42.988,9.052-68.872,9.052c-24.436,0-47.785-2.985-65.704-8.281
c-17.285-5.201-24.255-11.074-25.975-14.061C323.38,321.485,323.29,320.908,323.11,320.427z M508.999,427.605
c0,1.348-4.072,7.992-23.258,14.348c-18.373,6.067-42.809,9.438-68.872,9.438c-26.155,0-50.591-3.274-68.691-9.148
c-19.186-6.259-23.077-12.711-23.077-14.155c0-0.097,0-0.097,0-0.193l-0.453-27.83c21.54,11.652,57.469,16.949,90.412,16.949
c27.965,0,54.392-3.563,74.664-10.111c6.697-2.119,13.122-5.008,19.275-8.474V427.605L508.999,427.605z M508.186,374.256
c0,1.349-4.165,7.896-23.713,14.252c-18.553,5.971-43.169,9.245-69.414,9.245c-49.687,0-83.352-11.844-90.774-21.186l-0.18-8.282
l-0.363-22.051c6.607,3.563,13.485,6.354,20.636,8.378c19.458,5.777,44.526,9.051,70.592,9.051
c27.511,0,53.756-3.466,73.938-9.822c6.969-2.117,13.666-4.911,20.001-8.474v24.748h0.09
C508.999,371.367,508.186,372.812,508.186,374.256z"/>
</g>
</g>
<g>
<g>
<path d="M226.091,386.968c-1.81-5.008-6.969-7.415-11.675-5.585c0-0.097,0-0.097,0-0.097
c-17.104,6.934-36.382,2.504-49.233-11.267c-2.624-2.504-4.796-5.489-6.425-8.764h46.519c4.978,0,9.05-4.333,9.05-9.63
c0-5.296-4.073-9.63-9.05-9.63h-53.125c-0.543-3.466-0.633-7.029-0.271-10.592h58.102c4.978,0,9.05-4.334,9.05-9.63
c0-5.297-4.072-9.63-9.05-9.63h-52.763c2.172-4.141,4.796-7.896,7.874-11.363c12.941-13.674,32.219-18.104,49.233-11.074
c4.706,1.926,9.864-0.578,11.674-5.489c1.81-5.007-0.542-10.497-5.158-12.422c-23.711-9.726-50.591-3.659-68.601,15.504
c-6.697,7.03-11.765,15.504-14.933,24.941h-12.852c-4.978,0-9.05,4.333-9.05,9.63c0,5.296,4.073,9.63,9.05,9.63h9.05
c-0.181,3.562-0.181,7.029,0.181,10.593h-9.231c-4.978,0-9.05,4.333-9.05,9.63c0,5.296,4.073,9.629,9.05,9.629h13.848
c3.076,8.378,7.873,16.081,13.937,22.438c17.92,19.162,44.798,25.326,68.601,15.601
C225.548,397.465,227.81,391.976,226.091,386.968z"/>
</g>
</g>
</svg>