<?xml version="1.0" encoding="utf-8"?>
<!-- Generator: Adobe Illustrator 16.0.0, SVG Export Plug-In . SVG Version: 6.00 Build 0)  -->
<!DOCTYPE svg PUBLIC "-//W3C//DTD SVG 1.1//EN" "http://www.w3.org/Graphics/SVG/1.1/DTD/svg11.dtd" >
<svg version="1.1" id="Capa_1" xmlns="http://www.w3.org/2000/svg" xmlns:xlink="http://www.w3.org/1999/xlink" x="0px" y="0px"
width="600px" height="600px" viewBox="0 0 600 600" style="width: 600px; height: 600px; fill: #FFFFFF" xml:space="preserve">

<path  d="M208.946,403.617h-106.1c-3.752,0-6.792-3.271-6.792-7.307c0-4.033,3.041-7.307,6.792-7.307h106.1
c3.752,0,6.792,3.271,6.792,7.307C215.738,400.348,212.698,403.617,208.946,403.617z"/>
<g>
<path d="M92.977,437.492c-0.658,0-1.328-0.104-1.991-0.322c-3.587-1.184-5.604-5.268-4.507-9.124l29.15-102.388
c1.097-3.858,4.893-6.029,8.481-4.848c3.586,1.182,5.604,5.268,4.506,9.125L99.469,432.322
C98.574,435.469,95.884,437.492,92.977,437.492z"/>
<path d="M218.59,437.492c-2.908,0-5.599-2.021-6.492-5.168l-29.15-102.389c-1.098-3.857,0.92-7.943,4.506-9.125
s7.387,0.987,8.483,4.848l29.147,102.388c1.101,3.858-0.919,7.94-4.505,9.124C219.919,437.389,219.246,437.492,218.59,437.492z"/>
</g>
<path  d="M122.014,273.648l-6.9-84.571c-1.134-13.903-11.959-24.569-24.937-24.569h-6.381
c-8.51,0-15.188,7.843-14.444,16.961l9.557,117.115c2.014,24.689,21.238,43.631,44.283,43.631h92.619
c7.717,0,13.974-6.729,13.974-15.029v-3.709c0-16.465-12.407-29.812-27.717-29.812H142.33
C131.759,293.665,122.939,284.975,122.014,273.648z"/>
<path  d="M85.761,164.508h-1.965c-8.51,0-15.188,7.843-14.444,16.96l9.557,117.116
c2.014,24.689,21.238,43.631,44.283,43.631h57.873C102.51,328.909,95.189,300.359,85.761,164.508z"/>
<path d="M499.448,403.617H393.349c-3.752,0-6.793-3.271-6.793-7.307c0-4.033,3.041-7.307,6.793-7.307h106.099
c3.752,0,6.793,3.271,6.793,7.307C506.241,400.348,503.2,403.617,499.448,403.617z"/>
<g>
<path  d="M509.317,437.492c-2.907,0-5.597-2.021-6.491-5.168l-29.148-102.389c-1.1-3.857,0.919-7.943,4.506-9.125
c3.585-1.182,7.386,0.987,8.482,4.848l29.148,102.388c1.1,3.858-0.919,7.94-4.506,9.124
C510.646,437.389,509.976,437.492,509.317,437.492z"/>
<path  d="M383.707,437.492c-0.656,0-1.325-0.104-1.988-0.322c-3.587-1.184-5.605-5.268-4.507-9.124l29.148-102.388
c1.099-3.858,4.896-6.029,8.483-4.848c3.586,1.182,5.604,5.268,4.506,9.125L390.2,432.324
C389.305,435.469,386.614,437.492,383.707,437.492z"/>
</g>
<path  d="M480.281,273.648l6.9-84.571c1.135-13.903,11.959-24.569,24.937-24.569h6.379
c8.512,0,15.189,7.843,14.445,16.961l-9.556,117.115c-2.016,24.689-21.238,43.631-44.283,43.631h-92.617
c-7.718,0-13.975-6.729-13.975-15.029v-3.709c0-16.465,12.409-29.812,27.717-29.812h59.737
C470.538,293.665,479.357,284.975,480.281,273.648z"/>
<path  d="M483.61,232.843l-3.329,40.806c-0.924,11.326-9.743,20.017-20.313,20.017H400.23
c-15.309,0-27.718,13.348-27.718,29.813v3.709c0,8.301,6.256,15.028,13.975,15.028h92.618c14.405,0,27.318-7.401,35.467-18.981
C496.641,311.09,486.718,275.713,483.61,232.843z"/>
<rect x="283.722" y="248.078"  width="34.844" height="152.063"/>
<rect x="283.722" y="248.078"  width="34.844" height="32.704"/>
<path  d="M329.896,400.139h-57.499c-8.285,0-15.525,6.021-17.61,14.644l-1.644,6.79
c-1.054,4.359,2.004,8.613,6.188,8.613h83.627c4.187,0,7.243-4.254,6.188-8.613l-1.643-6.79
C345.425,406.156,338.183,400.139,329.896,400.139z"/>
<path  d="M396.868,214.714H205.428c-11.688,0-21.77,8.839-24.121,21.152l0,0c-1.205,6.305,3.271,12.21,9.255,12.21
h221.171c5.983,0,10.46-5.906,9.256-12.21l0,0C418.635,223.553,408.555,214.714,396.868,214.714z"/>
<path  d="M331.552,248.076c-18.291-8.752-22.613-24.4-20.195-33.362h-105.93c-11.688,0-21.77,8.839-24.121,21.152
c-1.205,6.305,3.271,12.21,9.255,12.21H331.552L331.552,248.076z"/>
</svg>